:SAMPLES-PER-SECOND 30
:FULLY-SPECIFIED
:DEGREES
49
root  34.84859617 36.55280767 -14.51613208 9.677372932 -4.332004547 3.124459028
lowerback  -8.980771065 -0.230505079 -0.3442329764
upperback  -3.624069929 0.1831250042 -3.258919954
thorax  1.288920045 0.2439599931 -3.155689955
lowerneck  -13.55370045 -5.818749905 -4.729259968
upperneck  13.5934 -7.941990376 6.919260025
head  6.851119995 -3.417399883 2.197660923
lclavicle  0 -4.497500157e-015 -2.743230041e-014
lhumerus  -48.37960052 31.24209976 62.44179916
lradius  0.009164110757 -6.507048965e-006 29.38670158
lwrist  3.192251654e-007 -3.790274832e-007 -29.15909958
lhand  -4.410243308e-031 -36.8064003 -10.72809982
lfingers  90 7.125020027 -90
lthumb  94.78340253 -25.56628479 100.9737506
rclavicle  0 -4.497500157e-015 -2.743230041e-014
rhumerus  -39.85319901 -22.30089951 -58.48630142
rradius  -5.16745672e-007 2.214343908e-008 85.57800293
rwrist  0.0006954420824 -0.004670973402 -172.1239929
rhand  -1.7661092e-031 -1.425629973 -8.007570267
rfingers  -90 -7.125020027 -90
rthumb  -86.48991654 -7.749001757 -65.53800254
rfemur  -12.20063019 15.31934834 12.87581158
rtibia  -0.3831893206 -0.9588214159 19.32722282
rfoot  0.6988638043 -21.88242149 -36.04817963
rtoes  4.067129194 19.59869679 -101.9683541
lfemur  -7.729032516 -15.79046154 -20.20265198
ltibia  3.392476082 0.110294655 13.0145216
lfoot  0.5228542089 -24.61294556 35.94141769
ltoes  -8.658636908 -18.09811937 -116.1147579
50
root  34.85688037 36.55975822 -14.51077799 9.60518837 -4.505047321 3.153472185
lowerback  -9.029349327 -0.1770048887 -0.3536882102
upperback  -3.653909922 0.2593150139 -3.26722002
thorax  1.288810015 0.2834819853 -3.151469946
lowerneck  -13.53800011 -5.86232996 -4.721199989
upperneck  13.60429955 -8.003930092 6.920760155
head  6.855460167 -3.446200132 2.200396299
lclavicle  0 -4.497500157e-015 -2.743230041e-014
lhumerus  -48.38589859 31.29439926 62.375
lradius  0.008723358624 -6.507048965e-006 29.39800072
lwrist  3.192251654e-007 -3.790274832e-007 -29.34539795
lhand  -0 -36.78749847 -10.70429993
lfingers  90 7.125020027 -90
lthumb  94.76952115 -25.54365234 100.9513555
rclavicle  0 -4.497500157e-015 -2.743230041e-014
rhumerus  -39.04800034 -21.97060013 -58.41949844
rradius  -5.16745672e-007 2.214343908e-008 86.84619904
rwrist  0.0006954420824 -0.004670973402 -172.4629974
rhand  -1.766222577e-031 -1.566460013 -7.760399818
rfingers  -90 -7.125020027 -90
rthumb  -86.41292789 -7.96608764 -65.66095393
rfemur  -12.1015749 15.4031601 12.83239079
rtibia  -0.3643805087 -0.9883006811 19.27820778
rfoot  0.7424548268 -21.93123817 -35.95463943
rtoes  4.059599355 19.60019903 -101.9459066
lfemur  -7.537250996 -15.78574848 -20.34760857
ltibia  3.480160475 0.02762051113 12.87956142
lfoot  0.5185544491 -24.41384506 36.03316879
ltoes  -8.637597211 -18.10790813 -116.0470466
51
root  34.85535749 36.56057823 -14.50512653 9.645450592 -4.539190292 3.169053316
lowerback  -9.017669678 -0.1606239378 -0.3401927054
upperback  -3.636980057 0.2782349885 -3.272769928
thorax  1.300940037 0.2920899987 -3.162950039
lowerneck  -13.50739956 -5.914239883 -4.755869865
upperneck  13.57719994 -8.070719719 6.938210011
head  6.851819515 -3.48023963 2.205510139
lclavicle  0 -4.497500157e-015 -2.743230041e-014
lhumerus  -48.30319977 31.20389938 62.53239822
lradius  0.008225238882 -6.507048965e-006 29.45809937
lwrist  3.192251654e-007 -3.790274832e-007 -28.98020172
lhand  -4.412514729e-031 -36.84579849 -10.66149998
lfingers  90 7.125020027 -90
lthumb  94.78783405 -25.49959787 101.0098576
rclavicle  0 -4.497500157e-015 -2.743230041e-014
rhumerus  -38.17229843 -21.53420067 -58.34009933
rradius  -5.16745672e-007 2.214343908e-008 88.23439789
rwrist  0.0006954420824 -0.004670973402 -172.8079987
rhand  -1.765730159e-031 -0.7895280123 -8.124389648
rfingers  -90 -7.125020027 -90
rthumb  -86.42189644 -7.680348469 -64.92584438
rfemur  -12.15457058 15.4137392 12.81622314
rtibia  -0.3778223097 -0.9870589375 19.31117439
rfoot  0.742505908 -21.91845131 -35.9059906
rtoes  4.081405523 19.59584058 -102.0109183
lfemur  -7.512562752 -15.75743198 -20.38287544
ltibia  3.538896561 0.03118526191 12.77165318
lfoot  0.5090298057 -24.35545349 36.03034592
ltoes  -8.633167627 -18.1099652 -116.0327955
52
root  34.85498804 36.55525868 -14.50000673 9.67552948 -4.56322813 3.167720079
lowerback  -9.040678978 -0.1519969404 -0.3575651646
upperback  -3.617310047 0.292441994 -3.29166007
thorax  1.334759951 0.2994140089 -3.171360016
lowerneck  -13.48400021 -5.97217989 -4.782730103
upperneck  13.55599976 -8.149450302 6.971290112
head  6.844399929 -3.516930103 2.209439039
lclavicle  0 -4.497500157e-015 -2.743230041e-014
lhumerus  -48.2336998 31.19759941 62.55619812
lradius  0.007667772472 -6.507048965e-006 29.46640015
lwrist  3.192251654e-007 -3.790274832e-007 -28.89249992
lhand  -4.408815821e-031 -36.78160095 -10.64990044
lfingers  90 7.125020027 -90
lthumb  94.75529366 -25.49032005 100.9401268
rclavicle  0 -4.497500157e-015 -2.743230041e-014
rhumerus  -37.27519989 -21.17469978 -58.27470016
rradius  -5.16745672e-007 2.214343908e-008 89.5102005
rwrist  0.0006954420824 -0.004670973402 -172.9949951
rhand  -1.765770877e-031 -0.8801969886 -7.945320129
rfingers  -90 -7.125020027 -90
rthumb  -86.36234611 -7.837220148 -65.0037395
rfemur  -12.18889332 15.35143948 12.80076504
rtibia  -0.3786990941 -1.020187259 19.29999161
rfoot  0.7340402007 -21.96819496 -35.88969803
rtoes  4.104057644 19.59128713 -102.0784669
lfemur  -7.568714619 -15.74860001 -20.37073135
ltibia  3.519858122 0.005557806231 12.82112598
lfoot  0.4965738952 -24.31454468 35.9813385
ltoes  -8.672623921 -18.09159535 -116.1597915
53
root  34.84483854 36.56308632 -14.49306518 9.729206085 -4.464979649 3.167366743
lowerback  -9.007950783 -0.182987988 -0.3344295621
upperback  -3.601109982 0.2478519976 -3.303600073
thorax  1.33118999 0.2764039934 -3.201319933
lowerneck  -13.45540047 -6.007589817 -4.796899796
upperneck  13.52910042 -8.196009636 6.979000092
head  6.834609985 -3.540640116 2.209810019
lclavicle  0 -4.497500157e-015 -2.743230041e-014
lhumerus  -48.24940109 31.34009933 62.45529938
lradius  0.007048981264 -6.507048965e-006 29.44669914
lwrist  3.192251654e-007 -3.790274832e-007 -29.09519958
lhand  -4.409943876e-031 -36.80120087 -10.67949963
lfingers  90 7.125020027 -90
lthumb  94.77070443 -25.51869475 100.9637711
rclavicle  0 -4.497500157e-015 -2.743230041e-014
rhumerus  -36.28649902 -20.77829933 -58.08409882
rradius  -5.16745672e-007 2.214343908e-008 90.58850098
rwrist  0.0006954420824 -0.004670973402 -173.5350037
rhand  -1.765817646e-031 -0.973976016 -8.001350403
rfingers  -90 -7.125020027 -90
rthumb  -86.40371753 -7.780956834 -65.09815066
rfemur  -12.201478 15.28442287 12.8234663
rtibia  -0.3761758208 -0.9930996895 19.28262138
rfoot  0.7391549349 -21.90499496 -35.91159821
rtoes  4.123615587 19.58733438 -102.1368007
lfemur  -7.606997967 -15.78686333 -20.34899712
ltibia  3.544549942 0.02377062105 12.78638363
lfoot  0.4754013717 -24.30980873 35.89502335
ltoes  -8.663450655 -18.09587556 -116.1302548
54
root  34.85007098 36.55964108 -14.48774563 9.729598999 -4.565416813 3.1539011
lowerback  -9.030180931 -0.1490510851 -0.3819856942
upperback  -3.604320049 0.2994970083 -3.317780018
thorax  1.342869997 0.3032490015 -3.184000015
lowerneck  -13.37720013 -6.042749882 -4.786960125
upperneck  13.44900036 -8.24341011 6.970870018
head  6.797550201 -3.567360163 2.202709913
lclavicle  0 -4.497500157e-015 -2.743230041e-014
lhumerus  -48.21030045 31.35630035 62.45510101
lradius  0.006012883503 -6.507048965e-006 29.42099762
lwrist  3.192251654e-007 -3.790274832e-007 -29.10899925
lhand  -0 -36.79790115 -10.65089989
lfingers  90 7.125020027 -90
lthumb  94.76314173 -25.49078352 100.9576455
rclavicle  0 -4.497500157e-015 -2.743230041e-014
rhumerus  -35.28620148 -20.40019989 -57.88399887
rradius  -5.16745672e-007 2.214343908e-008 91.7417984
rwrist  0.0006954420824 -0.004670973402 -173.8070068
rhand  -1.76590321e-031 -1.12548995 -8.000379562
rfingers  -90 -7.125020027 -90
rthumb  -86.43148973 -7.772974448 -65.2455909
rfemur  -12.18366432 15.30970573 12.79799366
rtibia  -0.3490320742 -1.033550739 19.20606613
rfoot  0.7960819006 -21.95315933 -35.82312775
rtoes  4.099619752 19.5921813 -102.0652319
lfemur  -7.617860794 -15.72077751 -20.34706306
ltibia  3.530730009 0.01804362796 12.84423256
lfoot  0.5163074732 -24.33904266 35.94926453
ltoes  -8.63785558 -18.1077881 -116.0478779
55
root  34.85046747 36.56628826 -14.48397899 9.719424248 -4.590267181 3.170202971
lowerback  -9.071799278 -0.1421989799 -0.3982825875
upperback  -3.602332115 0.3124549985 -3.320909977
thorax  1.363749981 0.3105449975 -3.176769972
lowerneck  -13.30049992 -6.046490192 -4.680900097
upperneck  13.36390018 -8.251000404 6.860280037
head  6.747910023 -3.579509735 2.151760101
lclavicle  0 -4.497500157e-015 -2.743230041e-014
lhumerus  -48.17210007 31.34180069 62.47510147
lradius  0.004438874777 -6.507048965e-006 29.42110062
lwrist  3.192251654e-007 -3.790274832e-007 -29.07419777
lhand  -4.408510833e-031 -36.77629852 -10.63440037
lfingers  90 7.125020027 -90
lthumb  94.74955311 -25.4753316 100.9330336
rclavicle  0 -4.497500157e-015 -2.743230041e-014
rhumerus  -34.27970123 -20.05590057 -57.73180008
rradius  -5.16745672e-007 2.214343908e-008 92.83059692
rwrist  0.0006954420824 -0.004670973402 -173.9109955
rhand  -1.76566867e-031 -0.628271997 -7.93460989
rfingers  -90 -7.125020027 -90
rthumb  -86.31026608 -7.861625935 -64.75787775
rfemur  -12.17602348 15.36958313 12.77899837
rtibia  -0.3449908793 -1.026749134 19.22941017
rfoot  0.7943025231 -21.95585442 -35.8139267
rtoes  4.076647025 19.59679376 -101.9967304
lfemur  -7.470048904 -15.67849541 -20.43414497
ltibia  3.637114286 0.03663875535 12.63531494
lfoot  0.5149468184 -24.28764534 35.9948082
ltoes  -8.644385668 -18.10475305 -116.0688898
